<svg width="36" height="50" viewBox="0 0 36 50" fill="none" xmlns="http://www.w3.org/2000/svg">
<path d="M17.7337 5.60021C26.9748 5.60021 34.4661 4.57042 34.4661 3.30011C34.4661 2.02979 26.9748 1 17.7337 1C8.49269 1 1.00134 2.02979 1.00134 3.30011C1.00134 4.57042 8.49269 5.60021 17.7337 5.60021Z" stroke="white" stroke-width="2" stroke-miterlimit="10" stroke-linecap="round" stroke-linejoin="round"/>
<path d="M34.4646 3.50009L24.2664 18.195C23.2689 19.6323 21.825 20.7008 20.1587 21.2345C18.5805 21.7402 16.884 21.7402 15.3058 21.2345C13.6395 20.7008 12.1957 19.6323 11.1982 18.195L1 3.50009" stroke="white" stroke-width="2" stroke-miterlimit="10" stroke-linecap="round" stroke-linejoin="round"/>
<path d="M17.7322 21.6137V46.546" stroke="white" stroke-width="2" stroke-miterlimit="10" stroke-linecap="round" stroke-linejoin="round"/>
<path d="M28.8265 46.546C28.8265 47.3881 23.8607 48.0706 17.7348 48.0706C11.6089 48.0706 6.64301 47.3879 6.64301 46.546C6.64301 45.704 11.6091 45.0214 17.7348 45.0214C23.8605 45.0214 28.8265 45.7038 28.8265 46.546Z" stroke="white" stroke-width="2" stroke-miterlimit="10" stroke-linecap="round" stroke-linejoin="round"/>
<path d="M5.13831 9.46588C6.82968 8.24392 11.4794 7.7788 17.7384 10.7897C24.5198 14.0517 29.3013 10.9183 30.3267 9.46588V9.4676C27.7535 7.91555 19.14 6.76496 14.1083 9.35443" stroke="white" stroke-width="2" stroke-miterlimit="10" stroke-linecap="round" stroke-linejoin="round"/>
</svg>
