<?xml version="1.0" encoding="UTF-8"?>
<svg id="Capa_2" data-name="Capa 2" xmlns="http://www.w3.org/2000/svg" viewBox="0 0 111.13 86.55">
  <defs>
    <style>
      .cls-1, .cls-2, .cls-3 {
        stroke-width: 2px;
      }

      .cls-1, .cls-2, .cls-3, .cls-4 {
        stroke: #021a26;
        stroke-miterlimit: 10;
      }

      .cls-1, .cls-4 {
        fill: none;
      }

      .cls-2 {
        fill: #fff;
      }

      .cls-3 {
        fill: #021a26;
      }
    </style>
  </defs>
  <g id="OBJECTS">
    <g>
      <g>
        <path class="cls-3" d="m85.13,43.35c-.32,3.94-59.18,32.45-62.52,31.39-1.7-.54-7-10.68-11.64-20.97-.8-1.78-1.58-3.57-2.33-5.32-.96-2.28-1.85-4.48-2.62-6.49-.68-1.79-1.28-3.45-1.73-4.87-.82-2.53-1.21-4.35-1-5.03C4.85,26.98,61.45,1.58,64.49,3.01c.55.25,1.59,1.6,2.91,3.68.73,1.14,1.55,2.49,2.42,4,1.07,1.84,2.21,3.9,3.37,6.08.91,1.68,1.84,3.44,2.74,5.2,4.86,9.49,9.36,19.39,9.2,21.38Z"/>
        <g>
          <path class="cls-2" d="m82.9,41.4c-.32,3.94-59.18,32.45-62.52,31.39-1.7-.54-7-10.68-11.64-20.97-.8-1.78-1.58-3.57-2.33-5.32-.96-2.28-1.85-4.48-2.62-6.49-.68-1.79-1.28-3.45-1.73-4.87-.82-2.53-1.21-4.35-1-5.03C2.62,25.03,59.23-.37,62.26,1.06c.55.25,1.59,1.6,2.91,3.68.73,1.14,1.55,2.49,2.42,4,1.07,1.84,2.21,3.9,3.37,6.07.91,1.68,1.84,3.44,2.74,5.2,4.86,9.49,9.36,19.39,9.2,21.38Z"/>
          <path class="cls-3" d="m70.96,14.82c-13.13,5.72-48.86,21.85-64.55,31.69-.96-2.28-1.85-4.48-2.62-6.49-.68-1.79-1.28-3.45-1.73-4.87,14.85-9.59,48.44-24.63,63.12-30.41.73,1.14,1.55,2.49,2.42,4,1.07,1.84,2.21,3.9,3.37,6.07Z"/>
          <g>
            <path class="cls-2" d="m72.51,38.03c-.13,1.57-12.39,7.65-13.72,7.22-.68-.21-5.71-11.65-5.63-11.92.62-2.03,12.48-7.3,13.68-6.73.22.1,5.72,10.63,5.66,11.42Z"/>
            <line class="cls-1" x1="17.91" y1="50.15" x2="32.12" y2="43.56"/>
            <line class="cls-1" x1="20.36" y1="55.44" x2="46.81" y2="43.17"/>
            <line class="cls-1" x1="22.81" y1="60.72" x2="49.26" y2="48.45"/>
          </g>
        </g>
      </g>
      <g>
        <g>
          <path class="cls-3" d="m108.49,83.66c-2.09,3.36-67.48,1.67-69.96-.8-1.26-1.26-1.32-12.7-.72-23.97.11-1.95.23-3.9.37-5.79.19-2.47.41-4.83.65-6.97.22-1.91.44-3.65.7-5.12.44-2.62.92-4.42,1.42-4.93,3.73-3.8,65.67-.39,67.71,2.27.37.48.67,2.15.9,4.61.12,1.35.23,2.92.31,4.67.11,2.12.17,4.48.21,6.95.04,1.91.05,3.9.05,5.88-.03,10.67-.58,21.52-1.64,23.22Z"/>
          <path class="cls-2" d="m107.4,80.91c-2.09,3.36-67.48,1.67-69.96-.8-1.26-1.26-1.32-12.7-.72-23.97.11-1.95.23-3.9.37-5.79.19-2.47.41-4.83.65-6.97.22-1.91.44-3.65.7-5.12.44-2.62.92-4.42,1.42-4.93,3.73-3.8,65.67-.39,67.71,2.27.37.48.67,2.15.9,4.61.12,1.35.23,2.92.31,4.67.11,2.12.17,4.48.21,6.95.04,1.91.05,3.9.05,5.88-.03,10.67-.58,21.52-1.64,23.22Z"/>
          <g>
            <path class="cls-2" d="m58.19,63.95c-.21.33-1.23.58-2.67.73-3.19.32-8.41.23-11.13-.16-.89-.12-1.51-.27-1.7-.45-.5-.49.28-12.96.47-13.16.29-.3,1.03-.51,2.04-.65,2.94-.4,8.16-.18,11.1.29,1.13.19,1.93.41,2.11.65.15.19.21,12.08-.21,12.75Z"/>
            <line class="cls-1" x1="66.43" y1="58.17" x2="87.17" y2="59.05"/>
            <line class="cls-1" x1="66.18" y1="63.99" x2="100.39" y2="65.45"/>
            <line class="cls-1" x1="65.93" y1="69.81" x2="100.15" y2="71.26"/>
          </g>
        </g>
        <rect class="cls-1" x="68.34" y="43.75" width="32.83" height="6.19" transform="translate(2.07 -3.56) rotate(2.44)"/>
        <line class="cls-4" x1="50.95" y1="50.12" x2="50.32" y2="64.87"/>
        <line class="cls-4" x1="58.01" y1="57.81" x2="43.26" y2="57.18"/>
        <g>
          <path class="cls-4" d="m46.86,57.33c-.12,2.9-1.06,5.47-2.46,7.18-.89-.12-1.51-.27-1.7-.45-.5-.49.28-12.96.47-13.16.29-.3,1.03-.51,2.04-.65,1.13,1.82,1.77,4.33,1.65,7.08Z"/>
          <path class="cls-4" d="m58.19,63.95c-.21.33-1.23.58-2.67.73-1.1-1.81-1.73-4.3-1.62-7.04.12-2.84,1.03-5.38,2.39-7.09,1.13.19,1.93.41,2.11.65.15.19.21,12.08-.21,12.75Z"/>
        </g>
      </g>
    </g>
  </g>
</svg>