<?xml version="1.0" encoding="UTF-8"?>
<svg id="Capa_2" data-name="Capa 2" xmlns="http://www.w3.org/2000/svg" viewBox="0 0 66.48 88.64">
  <defs>
    <style>
      .cls-1 {
        fill: #fff;
      }

      .cls-1, .cls-2 {
        stroke-width: 0px;
      }

      .cls-2 {
        fill: #021a26;
      }
    </style>
  </defs>
  <g id="OBJECTS">
    <g>
      <g>
        <path class="cls-2" d="m42.41,87.62c-.29,0-.57-.12-.77-.36-.33-.4-.3-.98.06-1.34l2.85-2.87s-.06.04-.1.06c-5.15,3.41-6.04,3.91-6.82,3.72-.27-.06-.56-.27-.69-.51-.24-.41-.47-.81.92-2.27-2.71,1.67-3.95,2.17-4.69,2-.33-.08-.61-.28-.77-.57-.18-.32-.46-.8.43-1.99-3.46,1.82-3.96,1.69-4.21,1.63-.27-.06-.56-.28-.7-.52-.26-.45-.13-1.01.29-1.31l1.85-1.32c-2.91,1.54-5.04,2.44-5.77,2.28-.33-.08-.61-.28-.77-.56-.76-1.32.34-2.3,10.46-8.35l-13.41,7.74c-.47.27-1.06.12-1.35-.34-.29-.46-.16-1.06.29-1.36l32.27-21.68c-2.75,1.34-6.57,3.52-10.98,6.22l-24.38,16.08c-.46.3-1.07.18-1.38-.27-.31-.45-.19-1.07.25-1.38,1.07-.75,2.92-2.03,5.25-3.63-8.08,4.52-8.64,4.38-8.93,4.3-.26-.07-.52-.26-.65-.49-.27-.46-.13-1.05.32-1.34l.73-.48c-2.02.92-3.35,1.31-4,1.15-.36-.09-.66-.31-.84-.61-.14-.23-.27-.62-.13-1.15.17-.62.9-1.5,2.16-2.6-1.34.86-2.64,1.7-3.89,2.51-.23.15-.51.2-.78.13-.27-.06-.5-.24-.63-.47-.13-.23-.26-.62-.12-1.13.14-.49.7-1.19,1.62-2.05l-1.58.91c-.23.13-.5.17-.76.1-.26-.07-.47-.24-.61-.47-.47-.81-.48-1.4,4-4.33-2.91,1.49-3.2,1.41-3.39,1.36-.26-.07-.51-.25-.64-.48-.17-.29-.33-.78-.14-1.45.14-.48.53-1.07,1.13-1.75-.26-.06-.49-.22-.64-.47-.15-.26-.29-.69-.13-1.28.15-.52.66-1.2,1.47-2.02-.32-.03-.62-.21-.79-.51-.26-.47-.1-1.06.35-1.34.14-.09,14.33-8.69,28.58-17.12,16.4-9.71,23.86-13.89,27.37-15.65.88-.74,1.52-1.34,1.98-1.82L5.4,60.65c-.48.28-1.09.11-1.37-.37-.28-.48-.11-1.09.37-1.37h0c10.47-6.06,23.99-14.04,35.45-21.09-5.31,2.96-11.16,6.12-17.27,9.39-2.93,1.57-5.9,3.16-8.48,4.57-2.77,1.72-5.43,3.38-7.9,4.93-.23.15-.51.19-.77.12-.26-.07-.49-.24-.62-.47-.14-.23-.17-.59-.1-.85.22-.78,1.44-1.66,8.27-5.39,16.19-10.06,40.5-24.89,48.83-28.45.9-.77,1.59-1.46,2.02-2.06-2.03,1.01-5.91,3.17-10.88,6.02-1.77,1.05-3.7,2.16-5.79,3.34-12.08,7.02-27.9,16.43-40.13,23.79-.23.14-.5.18-.77.11-.26-.07-.48-.24-.62-.47-.18-.31-.22-.69-.12-1.05.2-.7,1.14-1.62,2.96-2.9l-.58.33c-.48.28-1.09.11-1.37-.37-.13-.23-.27-.62-.13-1.13.15-.57.73-1.29,1.76-2.21-.35-.19-.57-.45-.69-.67-.13-.23-.17-.51-.1-.76.07-.26.24-.48.47-.61,16.32-9.24,33.62-19.6,43.08-26.03l-10.35,5.98c-11.76,7.36-26.39,15.39-30.79,17.78-.48.26-1.08.09-1.35-.39-.27-.48-.1-1.08.37-1.35l30.18-17.42c4.55-2.83,8.41-5.37,11.16-7.39-4.17,2.55-10.03,6.1-15.91,9.62-22.49,13.44-23.43,13.2-24.12,13.02-.26-.07-.54-.27-.68-.51-.18-.32-.23-.7-.12-1.08.19-.68,1-1.52,2.57-2.65-.23.15-.51.21-.78.15-.27-.06-.5-.23-.64-.47-.58-1-.84-1.45,14.39-11.45-3.92,2.48-8,5.12-11.93,7.71-.46.3-1.08.18-1.38-.28-.31-.46-.18-1.08.28-1.38.99-.66,2.01-1.35,3.07-2.06-.51.11-.92.13-1.24.07-.61-.13-.92-.48-1.08-.75-.27-.48-.11-1.09.36-1.36,10.7-6.24,21.99-13.56,25.07-16.61-3.79,1.56-13.9,7.95-22.92,14.21-.23.16-.52.22-.79.15-.27-.06-.51-.23-.65-.47-.2-.34-.33-.58.32-1.28l-.03-.04c.07-.05.14-.1.21-.14.89-.89,2.87-2.43,6.98-5.45-1.66,1.04-3.35,2.11-5,3.17-.46.3-1.08.17-1.38-.29-.3-.46-.17-1.08.29-1.38,4.7-3.1,9.81-6.76,12.64-9.15-2.73,1.56-6.84,4.22-10.44,6.72-.23.16-.52.22-.79.15-.27-.06-.51-.23-.65-.48-.47-.81-.07-1.55,2.26-3.63-.36.13-.77.04-1.05-.24-.32-.32-.38-.82-.15-1.21.5-.85,1.02-1.75,1.47-2.54-.22-.07-.42-.23-.55-.45-.28-.48-.11-1.09.37-1.37l1.84-1.06c.23-.13.5-.17.76-.1.26.07.47.24.61.47.25.43.35.61-.88,2.82l5.02-2.9c.23-.13.5-.17.76-.1.26.07.47.24.61.47.36.63.29.99-1.01,2.19,2.66-1.54,4.34-2.23,5.05-2.08.34.08.62.28.79.57.19.33.47.81-.51,2.07,3.59-1.94,4.1-1.82,4.37-1.75.27.06.56.28.7.52.26.44.13,1.01-.28,1.31-.14.1-.28.21-.43.31,1.96-.96,3.47-1.49,4.19-1.32.39.09.71.31.9.64.31.54.92,1.6-4.45,5.77,2.41-1.64,4.84-3.35,7.22-5.06.23-.16.52-.22.79-.16.28.06.51.23.66.48.21.37.35.61-.31,1.27l.03.04c-.08.06-.17.12-.27.19-.12.11-.26.23-.43.36,2.06-.98,3.56-1.5,4.21-1.35.36.08.65.3.83.6.23.39.16.88-.14,1.19,1.41-.55,2.47-.8,3.06-.66.55.12.83.44.97.69.16.28.31.73.14,1.34-.13.48-.5,1.02-1.08,1.63,1.12-.68,2.2-1.35,3.24-1.99.23-.14.51-.18.77-.12.26.07.49.24.62.47.15.27.3.71.13,1.31-.11.4-.42.89-.91,1.44l2.85-1.65c.23-.13.5-.17.76-.1.26.07.47.24.61.47.13.22.25.59.12,1.08-.31,1.13-3.1,3.44-7.25,6.34.11-.06.21-.12.31-.19,2.83-1.93,5.66-3.9,8.46-5.88.23-.16.51-.22.79-.16.27.06.51.23.65.48.15.26.19.58.11.88-.25.94-2.36,2.48-9.07,6.44-.49.33-.99.67-1.51,1.03l11.59-6.69c.23-.13.5-.17.76-.1.26.07.47.24.61.47.17.29.33.77.15,1.42-.11.39-.36.82-.75,1.3.31-.09.41-.06.49-.04.26.07.51.26.65.49.2.35.4.94.17,1.73-.16.57-.56,1.21-1.17,1.93.08.08.15.16.21.26.34.59.69,1.19-2.67,3.85l.51-.3c.23-.13.5-.17.76-.1.26.07.47.24.61.47.2.34.39.92.15,1.71-.16.55-.57,1.2-1.2,1.92.1.08.19.18.25.29.13.23.17.51.1.77-.07.26-.25.48-.49.61-1.49.81-2.98,1.62-4.47,2.45-2.11,1.62-4.68,3.39-7.55,5.25,5.1-2.78,8.92-4.82,10.29-5.54.48-.26,1.08-.08,1.34.4.26.48.1,1.08-.37,1.35L13.86,62.69c-4.11,2.73-7.13,4.98-8.62,6.5,7.97-4.14,36.22-20.85,55.48-32.4.23-.14.5-.18.77-.11.26.07.48.24.62.47.46.8.16,1.71-2.77,3.9.23-.13.43-.24.63-.35.48-.27,1.09-.1,1.36.38.27.48.11,1.08-.37,1.36l-5.75,3.32c2.23-1.02,3.82-1.54,4.48-1.38.37.09.67.31.85.61.13.23.17.51.1.76q-.13.5-7.24,4.58c-9.89,5.68-38.42,22.07-43.61,27.24,5.89-2.27,26.59-15.35,37.04-21.96,11.6-7.34,11.64-7.34,12.28-7.18.26.07.5.24.64.48.27.46.12,1.05-.32,1.34l-21.95,14.29c6.85-4.07,14.01-8.37,20.03-12.03.47-.28,1.07-.14,1.36.32.29.46.16,1.07-.29,1.37l-3.23,2.13c.49-.09.9-.11,1.21-.04.61.14.93.49,1.09.76.26.45.13,1.04-.31,1.33l-12.26,8.23,9.94-5.74c.48-.28,1.09-.11,1.37.37.52.9.12,1.89-2.11,3.69.32,0,.63.16.82.44.31.45.2,1.06-.24,1.38l-11.95,8.53c1.13-.69,2.28-1.41,3.45-2.13,1.81-1.17,3.85-2.46,6.15-3.87.47-.29,1.08-.14,1.37.32.29.46.15,1.08-.31,1.37-1.98,1.26-3.79,2.41-5.46,3.46-4.6,2.99-8.85,5.94-11.4,8.01,2.01-1.23,4.56-2.93,6.52-4.24,6.69-4.46,7.83-5.1,8.71-4.9.27.06.57.28.71.52.25.44.14,1.01-.28,1.31-1.71,1.25-3.45,2.55-5.1,3.81,2.18-1.36,2.85-1.59,3.42-1.45.27.06.57.28.71.52.23.39.16.88-.16,1.21l-2.51,2.53c.41-.13.58-.09.72-.06.27.06.56.27.7.51.28.48.11,1.09-.37,1.37-.19.11-.41.15-.62.13-.85.33-3.76,2.15-6.14,3.77-.17.12-.37.17-.56.17Zm-29.26-27.5c-2,1.34-3.7,2.55-5.05,3.58l5.11-2.95c1.8-1.2,3.75-2.46,5.8-3.75-2.11,1.13-4.09,2.18-5.87,3.12ZM60.6,18.38l-33.47,19.32c1.13-.61,2.3-1.25,3.53-1.92,4.45-2.42,9.68-5.26,14.65-8.06,2.33-1.35,4.39-2.54,6.21-3.57,3.66-2.16,6.86-4.16,9.07-5.77Zm-9.84-9.2c-4.11.95-21.37,11.61-37.34,22.42,3.01-1.96,7.82-4.65,14.87-8.54,8.26-4.55,20.45-11.26,22.46-13.89Z"/>
        <path class="cls-2" d="m21.58,5.86c-.86.97-1.46,2.5-2.01,3.73-1.81,4.34-3.3,8.82-4.77,13.29-3.86,11.98-7.33,24.11-10.35,36.32-1.02,4.37-2.16,8.72-2.63,13.18,0-.24,0-.06.09.07.71,1.17,1.79,2.43,2.77,3.59l.17.28c-.06-.12.03.02.14.1,2.66,1.64,5.81,2.38,8.78,3.33,10.76,2.93,21.78,5.73,32.86,6.89,1.17-.09.38.35,1-.66,1.94-4.72,3.28-9.8,4.72-14.73,3.74-13.35,7.14-26.82,10.13-40.36.92-4.64,2.24-9.67,2.39-14.2-.85-1.33-1.81-2.84-2.84-4.1-1.42-.92-3.33-1.36-5.04-1.9-8.32-2.27-16.9-3.7-25.46-4.69-3.26-.24-6.75-.89-9.94-.15h0Zm-.67-1.24c1.83-.72,3.65-.46,5.53-.46,5.24.25,10.43.97,15.6,1.79,6.91,1.26,13.9,2.24,20.42,5.01.21.1.45.23.6.4,1.18,1.3,2.08,2.8,3.05,4.24.16.21.35.63.37.93-.04,4.99-1.43,9.86-2.33,14.72-1.45,6.81-3.04,13.57-4.7,20.33-3.07,11.82-5.71,23.76-10.01,35.22-.33.58-.39,1.07-1.04,1.53-.48.3-.7.23-1.12.29-8.14-.48-16.05-2.66-23.94-4.42-5.08-1.27-10.16-2.58-15.11-4.34-1.49-.57-3.05-1.1-4.37-2.07-.22-.21-.47-.36-.7-.89l.17.28c-1.09-1.34-2.29-2.6-3.14-4.28-.09-.11-.13-.53-.13-.67.49-4.56,1.68-9.02,2.74-13.46,3.1-12.25,6.63-24.37,10.56-36.38,1.5-4.5,3.02-9.01,4.88-13.39.76-1.53,1.24-3.3,2.65-4.41h0Z"/>
        <g>
          <path class="cls-1" d="m18.18.96C14.35,3.03-.21,69.11.94,72.34c1.16,3.23,41.27,12.11,43.8,10.92,2.54-1.19,19.44-68.45,17.76-71.25C60.82,9.21,21.9-1.06,18.18.96Z"/>
          <path class="cls-2" d="m18.51,1.58c-.68.82-1.03,1.88-1.45,2.88-1.31,3.47-2.31,7.05-3.31,10.62-3.89,14.39-7.15,28.98-10,43.61-.75,4.42-1.83,8.86-1.97,13.33,0,0,0,.02,0,0-.06-.1.13.13.33.25,4.23,2.26,9.22,3.33,13.85,4.64,8.98,2.22,18.05,4.46,27.26,5.43.37.06.88,0,1.14-.01-.02,0,0,0-.06.03-.05.02-.09.05-.13.09,2.04-4.22,3.21-9.19,4.63-13.76,4.06-14.34,7.73-28.84,10.9-43.4.8-4.23,2.02-8.68,2.09-12.9-2.02-1.32-4.95-2.23-7.49-3.1-7.07-2.31-14.29-4.21-21.54-5.84-4.21-.88-8.45-1.86-12.74-2.04-.51,0-1.02,0-1.5.17h0Zm-.67-1.24c.32-.2.8-.23,1.16-.3,2.25-.17,4.49.22,6.69.54,7.41,1.23,14.68,3.04,21.91,5.03,4.87,1.45,9.64,2.66,14.29,4.91.61.31,1.49.91,1.52,1.7,0,4.56-1.25,8.96-2.05,13.41-3.68,17.07-7.82,34.03-12.83,50.77-.88,2.46-1.44,5.33-2.97,7.47-.66.62-1.67.47-2.46.45-9.36-1.02-18.5-3.34-27.61-5.63-4.89-1.43-9.85-2.46-14.37-4.96-.3-.24-.64-.38-.98-1.05-.08-.23-.13-.51-.14-.75.19-4.59,1.28-9.07,2.08-13.57,2.94-14.68,6.27-29.26,10.25-43.69,1.36-4.51,2.45-9.19,4.64-13.4.22-.35.5-.73.87-.95h0Z"/>
        </g>
        <g>
          <path class="cls-1" d="m20.4,4.56c-3.36,1.94-16.83,62.65-15.87,65.6s35.77,10.59,37.99,9.47c2.22-1.12,17.75-62.94,16.32-65.48-.53-.95-5.54-2.78-11.78-4.6-.27-.08-1.54,3.57-1.82,3.49-3.72-1.07-7.83-2.13-11.65-2.99-.31-.07.37-3.87.06-3.94-6.5-1.43-12.03-2.25-13.26-1.54Z"/>
          <path class="cls-2" d="m20.75,5.17c-2.18,3.82-3.02,8.32-4.31,12.51-3.57,13.32-6.6,26.81-9.27,40.34-.68,3.87-1.6,7.82-1.81,11.74,0,.12.02.16,0,.09-.04-.07,0,0,.06.05,1.96,1.32,4.47,1.94,6.83,2.72,6.58,1.96,13.32,3.49,20.06,4.81,3.24.54,6.56,1.36,9.83,1.29-.03,0-.04,0-.16.08-.12.11-.07.07-.07.05.02-.02.09-.16.14-.25,3.6-9.28,5.83-19.15,8.44-28.78,2.75-11.13,5.74-22.28,7.5-33.6.06-.55.12-1.12.11-1.58,0-.08-.04-.22,0-.1-3-1.86-6.81-2.79-10.23-3.93-.15-.06-.89-.26-1.03-.31-.22.03.68.02.56-.06.1-.06.15-.11.14-.11-.43.78-.91,2.13-1.42,3.06-.24.34-.39.69-1.09.59l-.12-.03-1.67-.43c-1.24-.33-7.23-1.87-8.33-2.16-.44-.11-1.16-.3-1.59-.42-.81-.39-.54-1.2-.55-1.77.06-.76.2-2.02.2-2.59,0,0,.01.05.07.14-.07,0,.37.34.42.29h-.05c-.77-.19-2.16-.47-2.94-.64-3.13-.51-6.62-1.52-9.75-1.01h0Zm-.7-1.22c1.28-.57,2.53-.33,3.83-.27,2.33.22,4.61.62,6.9,1.07.83.16,2.22.45,3.03.63.53.13.67.62.67,1.06,0,.94-.13,1.76-.19,2.65-.02.25-.03.59-.02.69,0,0,.01,0-.05-.13-.02-.03-.08-.19-.38-.32-.15-.04-.01,0-.03,0,.37.1,1.09.28,1.47.37,2.3.58,7.88,2,10.18,2.58-.49-.06-.58.08-.7.18-.03.04,0,0,.03-.05.6-1.08.88-2.33,1.63-3.37.02-.02.09-.1.23-.18-.1-.1.85-.12.66-.08,3.99,1.3,8.18,2.18,11.8,4.44.98.72.62,2.22.55,3.19-1.72,11.45-4.65,22.64-7.36,33.86-1.12,4.47-2.28,8.94-3.49,13.39-1.64,5.44-2.75,11.18-5.28,16.33-.63.92-2.01.74-2.93.68-2.92-.26-5.79-.82-8.64-1.36-6.81-1.36-13.57-2.94-20.22-4.96-2.49-.86-5.22-1.48-7.49-3.14-.94-.77-.6-2.25-.51-3.23.44-3.46,1.11-6.87,1.78-10.28,2.75-13.57,5.85-27.05,9.51-40.41,1.25-4.18,2.26-8.5,4.23-12.42.2-.33.46-.7.8-.91h0Z"/>
        </g>
      </g>
      <path class="cls-2" d="m38.53,40.91c-.16-.35-.41-.59-.74-.71-.33-.13-.68-.15-1.07-.06-.38.14-.76.21-1.13.21-.37,0-.75-.04-1.13-.13-1.01-.23-1.88-.65-2.6-1.27-.71-.6-1.21-1.39-1.5-2.35l3.14.71c.43.1.82.04,1.17-.16.35-.21.57-.52.67-.93.09-.41.03-.78-.2-1.11-.23-.33-.56-.54-.99-.64l-3.89-.88c.03-.18.05-.36.1-.55.03-.13.07-.24.1-.37l3.9.89c.43.1.82.04,1.17-.16.35-.21.57-.52.67-.93.09-.41.03-.78-.2-1.11-.23-.33-.56-.54-.99-.64l-3.12-.71c.62-.67,1.36-1.16,2.23-1.45.94-.31,1.94-.34,3.02-.1.38.09.74.22,1.08.4.34.18.65.4.92.65.31.24.64.39.98.43.35.04.66-.06.94-.31.4-.31.62-.7.65-1.18.03-.48-.14-.88-.52-1.19-.46-.43-.98-.8-1.56-1.11-.58-.3-1.19-.53-1.82-.67-1.22-.28-2.39-.31-3.52-.11-1.12.21-2.16.61-3.09,1.23-.94.61-1.74,1.41-2.39,2.39-.06.09-.11.18-.16.27l-1.17-.26c-.43-.1-.82-.05-1.17.15-.35.2-.57.5-.66.92-.09.41-.03.79.2,1.13.23.34.55.56.98.65l.66.15c-.03.12-.07.24-.1.37-.04.19-.07.37-.1.55l-.67-.15c-.43-.1-.82-.05-1.17.15-.35.2-.57.5-.66.92-.09.41-.03.79.2,1.13.23.34.55.56.98.65l1.16.26c.02.17.03.35.06.52.2,1.22.61,2.29,1.22,3.21.62.92,1.38,1.69,2.31,2.3.92.61,1.94,1.04,3.07,1.3.43.1.86.15,1.28.17.42.02.85,0,1.27-.05.43-.05.86-.14,1.28-.27.46-.11.78-.37.97-.78.19-.42.17-.87-.07-1.36Z"/>
      <g>
        <g>
          <path class="cls-1" d="m18.68,50.6c-1.73.77-3.53,9.73-2.53,10.82.99,1.09,22.25,6.51,23.33,6.15,1.09-.36,3.26-11.03,2.89-11.85s-22.16-5.8-23.7-5.12Z"/>
          <path class="cls-2" d="m18.96,51.25c-.83.86-1.21,2.35-1.55,3.53-.45,1.93-1.03,4.18-.68,6.11-.06,0,.08.03.13.06,7.15,2.46,14.67,4.18,22.1,5.61.24.04.18,0,.2.05,0,0,.01.01,0,.02-.08.02-.18.08-.24.14.26-.42.55-1.25.76-1.95.83-2.71,1.56-6.31,1.83-8.76.01.02.02.06.06.14.07.17.34.28.14.18-4.6-1.66-9.48-2.66-14.25-3.77-2.79-.54-5.69-1.26-8.49-1.36h0Zm-.57-1.28c.65-.2.91-.11,1.46-.1,2.67.24,5.28.78,7.9,1.29,5.01,1.1,10.14,1.87,14.97,3.67,0-.01.29.19.42.38.08.11.11.19.13.26.07.13.06.33.08.47-.14,3.26-.94,6.34-1.77,9.46-.35.94-.54,2.25-1.5,2.99-.32.25-1.12.2-1.33.16-5.64-.97-11.11-2.57-16.6-4.15-2.03-.64-4.09-1.17-6.05-2.09-1.23-.63-.98-2.25-.93-3.32.23-2.36.74-4.61,1.6-6.8.43-.87.64-1.61,1.63-2.21h0Z"/>
        </g>
        <g>
          <path class="cls-1" d="m17.29,48.85c-1.73.77-3.53,9.73-2.53,10.82.99,1.09,22.25,6.51,23.33,6.15,1.09-.36,3.26-11.03,2.89-11.85s-22.16-5.8-23.7-5.12Z"/>
          <path class="cls-2" d="m17.58,49.49c-.83.86-1.21,2.35-1.55,3.53-.45,1.93-1.03,4.18-.68,6.11-.06,0,.08.03.13.06,7.15,2.46,14.67,4.18,22.1,5.61.24.04.18,0,.2.05,0,0,.01.01,0,.02-.08.02-.18.08-.24.14.26-.42.55-1.25.76-1.95.83-2.71,1.56-6.31,1.83-8.76.01.02.02.06.06.14.07.17.34.28.14.18-4.6-1.66-9.48-2.66-14.25-3.77-2.79-.54-5.69-1.26-8.49-1.36h0Zm-.57-1.28c.65-.2.91-.11,1.46-.1,2.67.24,5.28.78,7.9,1.29,5.01,1.1,10.14,1.87,14.97,3.67,0-.01.29.19.42.38.08.11.11.19.13.26.07.13.06.33.08.47-.14,3.26-.94,6.34-1.77,9.46-.35.94-.54,2.25-1.5,2.99-.32.25-1.12.2-1.33.15-5.64-.97-11.11-2.57-16.6-4.15-2.03-.64-4.09-1.17-6.05-2.09-1.23-.63-.98-2.25-.93-3.32.23-2.36.74-4.61,1.6-6.8.43-.87.64-1.61,1.63-2.21h0Z"/>
        </g>
      </g>
    </g>
  </g>
</svg>