<?xml version="1.0" encoding="UTF-8"?>
<svg id="Capa_2" data-name="Capa 2" xmlns="http://www.w3.org/2000/svg" viewBox="0 0 67.69 68.36">
  <defs>
    <style>
      .cls-1 {
        fill: #fff;
      }

      .cls-1, .cls-2 {
        stroke-width: 0px;
      }

      .cls-2 {
        fill: #021a26;
      }
    </style>
  </defs>
  <g id="OBJECTS">
    <g>
      <path class="cls-2" d="m13.95,14.38c-12.39,11.91-12.38,32.96,0,44.88,19.91,19.6,53.73,5.47,53.74-22.44-.01-27.9-33.84-42.04-53.75-22.44Zm-1.34,38.25c.24.09.5.16.78.21.73.13,1.61.09,2.6-.1-.7.46-1.38.91-2.06,1.36-.05.04-.09.09-.13.13-.41-.53-.82-1.05-1.19-1.61Zm-1.94-3.55c.24.11.5.2.79.25.03,0,.05,0,.08.01-.22.2-.37.39-.49.57-.14-.27-.25-.56-.38-.83Zm7.26-34.03s.02,0,.03,0c-.05.04-.09.07-.14.1.03-.03.07-.07.1-.1Zm36.76-.47c.25.2.49.41.73.62-.18.06-.42.15-.79.32.08-.32.1-.64.06-.94Zm-21.85,13.19c-3.66,2.15-7.92,4.67-12.85,7.61-3.87,1.96-6.61,3.39-8.51,4.47-.62.19-1.16.31-1.61.36C41.36,17.28,47.67,12.36,48.68,10.88c1.57.73,3.09,1.59,4.51,2.59,0,0,0,0,0,0-5.96,4.43-13.32,9.65-20.34,14.3Zm19.74-11.77c-.2.3-.46.61-.77.94-.58.31-1.25.67-2.01,1.09,1.1-.79,2.04-1.48,2.78-2.03ZM8.09,34.65c.9-.11,2.8-1.18,8.53-4.87,6.73-3.91,15.86-9.45,21.74-13.97,2.64-1.6,5-2.96,6.71-3.77-6.32,4.95-24.2,18.1-36.95,27.38-.14-1.59-.13-3.18-.02-4.77ZM43.56,10.93c.29-.42.49-.8.59-1.14.06-.21.08-.39.08-.56.64.18,1.28.38,1.91.61-.7.23-1.55.58-2.57,1.1Zm-6.36-2.78s.04,0,.07,0c-.02.01-.04.02-.07.03,0,0,0-.02,0-.03Zm-17.73,7.86c4.71-3.56,6.82-5.25,7.59-6.28,2.19-.77,4.44-1.26,6.69-1.47-7.36,4.65-15.04,9.32-19.3,11.63,1.5-1.22,3.42-2.67,5.02-3.88Zm-8.01,6.98c1.87-.4,7.82-3.8,14.61-7.96-3.33,2.37-6.91,5.1-10.57,7.92-1.63,1.25-3.28,2.53-4.57,3.48-.43.26-.87.52-1.3.77.5-1.45,1.1-2.86,1.84-4.22Zm-2.55,6.63c.47-.08,1.18-.49,2.92-1.77,8.64-5.17,19.83-12.34,23.86-17.04,2.68-1.48,4.91-2.34,6.19-2.08.42.08.58.28.67.44.22.76-1.55,2.55-4.78,5.03-4.01,2.42-9.26,5.81-16,10.22-2.08,1.36-4.25,2.79-6.25,4.07-2.31,1.34-4.72,2.69-7.19,4.06.14-.99.33-1.96.57-2.93Zm-.49,12.09c.05.02.09.04.15.06-.05.04-.08.08-.12.12-.01-.06-.02-.12-.03-.18Zm.65,2.16c2.15-1.29,4.44-2.66,6.8-4.07,2.78-1.32,6.06-3.16,9.51-5.27.76-.38,1.5-.76,2.24-1.14-11.8,7.49-16.7,10.99-18.03,12.95-.27-.79-.51-1.59-.71-2.41.06-.02.13-.03.18-.06Zm50.68-22.53c.14-.48.18-.95.12-1.39.39.53.75,1.07,1.11,1.62-.22-.03-.47.03-.64.18-.42.36-.88.73-1.36,1.13.37-.54.64-1.05.78-1.55Zm1.35,1.95c.14-.12.25-.2.3-.25l-.04-.05c.11-.14.19-.26.24-.37.61,1.07,1.16,2.18,1.64,3.34-.06-.03-.12-.07-.17-.09-.31-.08-.96.1-1.92.48-2.28.31-5.58,2.17-9.47,4.87-.63.36-1.29.73-1.95,1.11,1.85-1.42,3.56-2.76,5.08-3.95,3.74-2.74,5.51-4.23,6.3-5.09Zm3.92,15.64c-1.05-.22-3.49,1.39-12.64,7.88-3.86,2.73-8.85,6.28-13.52,9.33-2.7,1.54-4.92,2.89-6.61,4.07-2.29,1.29-4.22,2.19-5.51,2.47l38.59-26.15c0,.1.01.2.01.3,0,.75-.04,1.49-.09,2.22-.08-.04-.16-.09-.23-.11Zm-1.2,2.11c-1.24,1.47-5.22,3.97-9.49,6.44,3.85-2.73,7.64-5.4,9.49-6.44Zm-18.01,15.25c-.91.62-1.84,1.27-2.79,1.93-6.05,3.02-9.29,4.84-10.36,6.21-.03,0-.05.02-.08.02,1.21-1.9,7.26-5.17,13.23-8.17Zm-15.02,8.06c-.04.12-.06.25-.08.37-.06,0-.11-.01-.16-.02-.31-.06-.41-.18-.45-.21.02-.57,1.18-1.57,2.96-2.8-1.25.98-2.02,1.87-2.27,2.67Zm34.48-29.5c-.33-.34-.71-.63-1.21-.79.56-.32.88-.51,1.06-.66.06.48.11.96.14,1.44Zm-.55-2.97c-.67-.15-1.91.44-5.25,2.64-2.74.91-6.2,2.71-10.06,5.08,10.87-7.27,14.05-9.78,14.73-11.01.32,1.1.6,2.23.79,3.4-.07-.04-.15-.09-.22-.1Zm-21.5.42c6.72-4.88,12.46-9.4,14.9-11.35-.97,2.9-7.29,7.09-14.9,11.35Zm1.89.85c-6.98,4.81-15.44,10.51-23.22,15.69-3.52,1.73-6.39,2.67-8.19,2.35-.49-.09-.85-.27-1.11-.56.35-.38,1.2-.96,2.39-1.66,4.19-1.15,10.25-4.54,16.54-8.61,4.58-2.33,9.33-4.79,13.59-7.22Zm-14.39,14.24c-5.87,4.5-11.26,8.22-13.75,8.37l13.75-8.37Zm8.56-4.58c1.14-.91,2.3-1.83,3.47-2.74l19.63-11.95s.05.03.07.04c-2.11,2.39-17.4,12.39-27.67,19.1-12.31,8.05-15.87,10.41-16.68,11.46-.47-.4-.94-.84-1.4-1.28,3.76.1,11.15-5.55,22.59-14.62Zm3.16,3.42c-.17.12-.35.24-.52.36l.44-.3s.06-.03.09-.05Zm-19.85,11.1c-.57.52-1.03.99-1.39,1.41-.32.09-.61.15-.86.18.55-.41,1.31-.95,2.25-1.59Zm2.32,1.95c.27-.21.55-.43.85-.66,6-3.01,15.05-9.17,25.63-16.53,2.64-1.84,5.32-3.7,7.58-5.22.64-.35,1.28-.71,1.94-1.07.96-.25,1.79-.32,2.43-.2.09.02.18.04.26.07l-39.36,26.67c-.1.07-.18.16-.24.26-.68-.34-1.35-.7-2.01-1.1.5-.34,1.33-.99,2.93-2.23Zm3.63,4.56c-.02.05-.04.1-.05.15-.04.13-.05.24-.06.35-.25-.08-.51-.14-.76-.23.28-.08.56-.17.87-.28Zm11.04,1.49l14.21-8.2c-.82.65-1.53,1.23-2.16,1.77-3.93,2.89-6.98,4.87-9.19,5.96-.94.2-1.89.37-2.85.48Zm11.77-3.96c.35-.32.74-.67,1.21-1.07,1.61-1.19,3.25-2.46,4.9-3.75-1.82,1.88-3.88,3.5-6.11,4.82Zm13.1-17.42s-.07-.04-.11-.05c-.24-.05-.49.02-.68.17-1.55,1.24-3.24,2.56-5,3.9-2.54,1.36-5.7,2.92-8.53,4.3-3.72,1.83-7.02,3.47-9.8,4.95,2.32-1.33,4.71-2.64,6.78-3.78,9.1-5.01,15.31-8.54,17.69-11.11-.1.54-.21,1.09-.35,1.62Zm-5.71-25.45c-.17.01-.34.06-.48.17-5.83,4.73-17.31,13.55-27.59,20.24-1.4.71-2.76,1.4-4.08,2.07-6.02,3.04-9.97,5.06-12.4,6.52-.95.22-1.77.29-2.41.17-.46-.09-.71-.26-.87-.43,1.4-2.38,17.15-12.2,27.65-18.76,14.53-9.06,17.68-11.19,18.06-12.22.74.71,1.45,1.45,2.12,2.24Z"/>
      <g>
        <circle class="cls-1" cx="32.4" cy="32.36" r="31.48"/>
        <path class="cls-2" d="m64.58,32.36c.13,22.88-23.45,38.66-44.57,29.9-26.68-11.19-26.68-48.62,0-59.8,21.12-8.76,44.7,7.03,44.57,29.9h0Zm-1.41,0c-.15-27.22-33.12-40.86-52.38-21.6-11.75,11.38-11.76,31.83,0,43.21,19.26,19.25,52.24,5.62,52.38-21.61h0Z"/>
      </g>
      <g>
        <circle class="cls-1" cx="32.4" cy="32.36" r="20.26"/>
        <path class="cls-2" d="m17.58,17.54c13.21-13.19,35.89-3.87,36.03,14.82.21,11.48-9.73,21.43-21.21,21.21-18.69-.13-28.01-22.82-14.82-36.03h0Zm.99.99c-12.17,12.29-3.45,33.16,13.83,33.12,10.34.17,19.47-8.96,19.3-19.3.04-17.28-20.84-26-33.13-13.83h0Z"/>
      </g>
      <path class="cls-2" d="m39.65,40.02c-.34-.43-.75-.69-1.25-.76-.49-.07-.99.01-1.5.25-.48.31-.98.53-1.5.65-.52.12-1.06.18-1.61.18-1.47,0-2.81-.31-4.02-.94-1.18-.61-2.11-1.54-2.82-2.79h4.59c.63,0,1.15-.2,1.57-.6.42-.4.63-.9.63-1.5s-.21-1.1-.63-1.48c-.42-.38-.95-.58-1.57-.58h-5.68c-.01-.26-.04-.52-.04-.8,0-.19.02-.36.03-.54h5.69c.63,0,1.15-.2,1.57-.6.42-.4.63-.9.63-1.5s-.21-1.1-.63-1.48-.95-.58-1.57-.58h-4.56c.65-1.13,1.52-2.04,2.64-2.71,1.21-.72,2.59-1.09,4.16-1.09.56,0,1.1.07,1.63.22.53.15,1.03.35,1.48.62.51.24,1.01.34,1.5.29.49-.05.9-.29,1.21-.72.46-.55.63-1.17.53-1.85-.11-.68-.48-1.17-1.1-1.48-.77-.46-1.61-.81-2.51-1.05-.9-.24-1.82-.36-2.73-.36-1.78,0-3.42.32-4.92.96-1.5.64-2.8,1.53-3.91,2.68-1.11,1.15-1.97,2.5-2.57,4.07-.05.14-.09.29-.14.43h-1.7c-.63,0-1.15.19-1.57.58-.42.39-.63.88-.63,1.48s.21,1.1.63,1.5c.42.4.95.6,1.57.6h.96c0,.18-.02.36-.02.54,0,.27.02.53.03.8h-.97c-.63,0-1.15.19-1.57.58-.42.39-.63.88-.63,1.48s.21,1.11.63,1.5c.42.4.95.6,1.57.6h1.69c.08.24.15.48.24.71.66,1.63,1.57,2.98,2.71,4.07,1.15,1.08,2.45,1.91,3.93,2.46,1.47.55,3.03.83,4.67.83.63,0,1.24-.05,1.83-.16.59-.11,1.18-.27,1.75-.47.58-.2,1.14-.46,1.7-.78.6-.29.97-.75,1.1-1.39.13-.64-.04-1.26-.53-1.86Z"/>
    </g>
  </g>
</svg>